<svg xmlns="http://www.w3.org/2000/svg" viewBox="0 0 280 56" fill="none" role="img" aria-label="Sundoritoma">
  <path d="M8 44V12h6.8l10.4 19.2L35.6 12H42v32h-5.8V22.4L27.2 44h-3.4l-9-21.6V44H8z" fill="#1E1E1E"/>
  <path d="M48 44V12h5.8v32H48z" fill="#1E1E1E"/>
  <path d="M60 44V12h9.2c7.2 0 11.6 3.8 11.6 10.2 0 4.2-2 7.4-5.4 9l7 12.8H72.8l-6.2-11.4H65.8V44H60zm5.8-16.2h3.2c3.4 0 5.4-1.6 5.4-4.6 0-3-2-4.6-5.4-4.6h-3.2v9.2z" fill="#1E1E1E"/>
  <path d="M84 44V12h9.4c8.8 0 14.2 5.6 14.2 16s-5.4 16-14.2 16H84zm5.8-5.2h3.2c5.4 0 8.4-3.6 8.4-10.8S98.4 17.2 93 17.2h-3.2v21.6z" fill="#1E1E1E"/>
  <path d="M112 44V12h5.8l16.8 20.4V12H140v32h-5.6l-17-20.8V44h-5.4z" fill="#1E1E1E"/>
  <path d="M146 44V12h5.8v32H146z" fill="#1E1E1E"/>
  <path d="M158 44V12h9.2c7.2 0 11.6 3.8 11.6 10.2 0 4.2-2 7.4-5.4 9l7 12.8h-6.4l-6.2-11.4h-1.2V44H158zm5.8-16.2h3.2c3.4 0 5.4-1.6 5.4-4.6 0-3-2-4.6-5.4-4.6h-3.2v9.2z" fill="#C9A227"/>
  <path d="M190 44V12h9.4c8.8 0 14.2 5.6 14.2 16s-5.4 16-14.2 16H190zm5.8-5.2h3.2c5.4 0 8.4-3.6 8.4-10.8S199.4 17.2 194 17.2h-3.2v21.6z" fill="#C9A227"/>
  <path d="M218 44V12h5.8l16.8 20.4V12h5.4v32h-5.6l-17-20.8V44H218z" fill="#C9A227"/>
  <path d="M252 44V12h5.8v32H252z" fill="#C9A227"/>
  <circle cx="272" cy="28" r="3.5" fill="#C9A227"/>
</svg>
